<svg width="20" height="22" viewBox="0 0 20 22" fill="none" xmlns="http://www.w3.org/2000/svg">
<g id="Group 427321412">
<path id="Vector 242 (Stroke)" fill-rule="evenodd" clip-rule="evenodd" d="M1.39857 -6.66909e-08C2.17098 -1.03523e-07 2.79714 0.62616 2.79714 1.39857L2.79714 20.0461C2.79714 20.8185 2.17098 21.4447 1.39857 21.4447C0.626161 21.4447 9.92736e-07 20.8185 9.55904e-07 20.0461L6.66909e-08 1.39857C2.98586e-08 0.62616 0.62616 -2.98586e-08 1.39857 -6.66909e-08Z" fill="#808080"/>
<path id="Polygon 3 (Stroke)" fill-rule="evenodd" clip-rule="evenodd" d="M6.0246 8.29525C4.58083 9.5919 4.58083 11.8544 6.0246 13.151L13.9562 20.2744C16.057 22.1611 19.4 20.6702 19.4 17.8465L19.4 3.5998C19.4 0.776124 16.057 -0.714822 13.9562 1.1719L6.0246 8.29525ZM7.8936 11.07C7.68735 10.8848 7.68735 10.5615 7.8936 10.3763L15.8252 3.25296C16.1253 2.98342 16.6029 3.19643 16.6029 3.5998L16.6029 17.8465C16.6029 18.2499 16.1253 18.4629 15.8252 18.1933L7.8936 11.07Z" fill="#808080"/>
</g>
</svg>
