<svg width="23" height="22" viewBox="0 0 23 22" fill="none" xmlns="http://www.w3.org/2000/svg">
<circle cx="11.5" cy="11" r="11" fill="#F5F8FF"/>
<mask id="mask0_1880_11222" style="mask-type:luminance" maskUnits="userSpaceOnUse" x="7" y="6" width="10" height="10">
<path fill-rule="evenodd" clip-rule="evenodd" d="M7.50018 6.5H16.0905V15.9698H7.50018V6.5Z" fill="white"/>
</mask>
<g mask="url(#mask0_1880_11222)">
<path fill-rule="evenodd" clip-rule="evenodd" d="M13.0553 7.50832L8.34782 13.3958C8.26232 13.5028 8.23082 13.6408 8.26232 13.7733L8.60282 15.2158L10.1223 15.1968C10.2668 15.1953 10.4003 15.1308 10.4888 15.0208C12.0973 13.0083 15.1638 9.17132 15.2508 9.05882C15.3328 8.92582 15.3648 8.73782 15.3218 8.55682C15.2778 8.37132 15.1623 8.21382 14.9958 8.11332C14.9603 8.08882 14.1178 7.43482 14.0918 7.41432C13.7748 7.16032 13.3123 7.20432 13.0553 7.50832ZM8.30682 15.9698C8.13332 15.9698 7.98232 15.8508 7.94182 15.6813L7.53232 13.9458C7.44782 13.5863 7.53182 13.2153 7.76232 12.9273L12.4723 7.03632C12.4743 7.03432 12.4758 7.03182 12.4778 7.02982C12.9943 6.41232 13.9283 6.32132 14.5583 6.82682C14.5833 6.84632 15.4198 7.49632 15.4198 7.49632C15.7238 7.67732 15.9613 8.00082 16.0513 8.38382C16.1408 8.76282 16.0758 9.15382 15.8673 9.48432C15.8518 9.50882 15.8383 9.52982 11.0743 15.4898C10.8448 15.7758 10.5008 15.9423 10.1313 15.9468L8.31182 15.9698H8.30682Z" fill="#669BFF"/>
</g>
<path fill-rule="evenodd" clip-rule="evenodd" d="M14.6117 10.8427C14.5317 10.8427 14.4517 10.8172 14.3832 10.7652L11.6572 8.67118C11.4932 8.54518 11.4622 8.31018 11.5882 8.14518C11.7147 7.98118 11.9497 7.95068 12.1142 8.07668L14.8407 10.1702C15.0047 10.2962 15.0357 10.5317 14.9092 10.6962C14.8357 10.7922 14.7242 10.8427 14.6117 10.8427Z" fill="#669BFF"/>
</svg>
