<svg width="20" height="20" viewBox="0 0 21 22" fill="none" xmlns="http://www.w3.org/2000/svg">
<g id="Group 427321417">
<path id="Vector 242 (Stroke)" fill-rule="evenodd" clip-rule="evenodd" d="M18.7147 -6.66909e-08C17.9423 -1.03523e-07 17.3161 0.62616 17.3161 1.39857L17.3161 20.0461C17.3161 20.8185 17.9423 21.4447 18.7147 21.4447C19.4871 21.4447 20.1133 20.8185 20.1133 20.0461L20.1133 1.39857C20.1133 0.62616 19.4871 -2.98586e-08 18.7147 -6.66909e-08Z" fill="#808080"/>
<path id="Polygon 3 (Stroke)" fill-rule="evenodd" clip-rule="evenodd" d="M14.0887 8.29525C15.5325 9.5919 15.5324 11.8544 14.0887 13.151L6.15711 20.2744C4.05631 22.1611 0.713291 20.6702 0.713291 17.8465L0.713292 3.5998C0.713292 0.776124 4.05632 -0.714822 6.15712 1.1719L14.0887 8.29525ZM12.2197 11.07C12.4259 10.8848 12.4259 10.5615 12.2197 10.3763L4.28812 3.25296C3.988 2.98342 3.51043 3.19643 3.51043 3.5998L3.51043 17.8465C3.51043 18.2499 3.988 18.4629 4.28811 18.1933L12.2197 11.07Z" fill="#808080"/>
</g>
</svg>
