<svg width="26" height="25" viewBox="0 0 26 25" fill="none" xmlns="http://www.w3.org/2000/svg">
<path d="M13.1033 23.4375C7.11092 23.4375 2.23633 18.5312 2.23633 12.5C2.23633 6.46875 7.11092 1.5625 13.1033 1.5625C19.0956 1.5625 23.9702 6.46875 23.9702 12.5C23.9702 18.5312 19.0956 23.4375 13.1033 23.4375ZM13.1033 3.125C7.96476 3.125 3.78875 7.32812 3.78875 12.5C3.78875 17.6719 7.96476 21.875 13.1033 21.875C18.2418 21.875 22.4178 17.6719 22.4178 12.5C22.4178 7.32812 18.2418 3.125 13.1033 3.125Z" fill="#E6E6E6"/>
<path d="M13.1034 17.9688C12.6687 17.9688 12.3271 17.625 12.3271 17.1875V7.8125C12.3271 7.375 12.6687 7.03125 13.1034 7.03125C13.538 7.03125 13.8796 7.375 13.8796 7.8125V17.1875C13.8796 17.625 13.538 17.9688 13.1034 17.9688Z" fill="#E6E6E6"/>
<path d="M17.7606 13.2812H8.44613C8.01145 13.2812 7.66992 12.9375 7.66992 12.5C7.66992 12.0625 8.01145 11.7188 8.44613 11.7188H17.7606C18.1953 11.7188 18.5369 12.0625 18.5369 12.5C18.5369 12.9375 18.1953 13.2812 17.7606 13.2812Z" fill="#E6E6E6"/>
</svg>
