<svg width="61" height="61" viewBox="0 0 61 61" fill="none" xmlns="http://www.w3.org/2000/svg">
<rect width="60.0906" height="61" rx="10" fill="#E6E6E6"/>
<path d="M43.6774 30.3333C43.6774 31.4379 42.782 32.3333 41.6774 32.3333H31.9931V42.636C31.9931 43.7115 31.1212 44.5833 30.0457 44.5833C28.9702 44.5833 28.0984 43.7115 28.0984 42.636V32.3333H18.4141C17.3095 32.3333 16.4141 31.4379 16.4141 30.3333V30.25C16.4141 29.1454 17.3095 28.25 18.4141 28.25H28.0984V17.9474C28.0984 16.8719 28.9702 16 30.0457 16C31.1212 16 31.9931 16.8719 31.9931 17.9474V28.25H41.6774C42.782 28.25 43.6774 29.1454 43.6774 30.25V30.3333Z" fill="#808080"/>
</svg>
