<svg width="54" height="73" viewBox="0 0 54 73" fill="none" xmlns="http://www.w3.org/2000/svg">
<path d="M47.25 24.3333H43.875V17.381C43.875 7.78667 36.315 0 27 0C17.685 0 10.125 7.78667 10.125 17.381V24.3333H6.75C3.0375 24.3333 0 27.4619 0 31.2857V66.0476C0 69.8714 3.0375 73 6.75 73H47.25C50.9625 73 54 69.8714 54 66.0476V31.2857C54 27.4619 50.9625 24.3333 47.25 24.3333ZM27 55.619C23.2875 55.619 20.25 52.4905 20.25 48.6667C20.25 44.8429 23.2875 41.7143 27 41.7143C30.7125 41.7143 33.75 44.8429 33.75 48.6667C33.75 52.4905 30.7125 55.619 27 55.619ZM16.875 24.3333V17.381C16.875 11.6105 21.3975 6.95238 27 6.95238C32.6025 6.95238 37.125 11.6105 37.125 17.381V24.3333H16.875Z" fill="#F5F8FF"/>
</svg>
